<svg version="1.1" id="Layer_1" xmlns="http://www.w3.org/2000/svg" xmlns:xlink="http://www.w3.org/1999/xlink" x="0px" y="0px"
	 width="100%" viewBox="0 0 1280 1280" enable-background="new 0 0 1280 1280" xml:space="preserve">
<path fill="#FFFFFF" opacity="1.000000" stroke="none" 
	d="
M850.000000,1281.000000 
	C566.666687,1281.000000 283.833344,1281.000000 1.000000,1281.000000 
	C1.000000,854.333313 1.000000,427.666656 1.000000,1.000000 
	C427.666656,1.000000 854.333313,1.000000 1281.000000,1.000000 
	C1281.000000,427.666656 1281.000000,854.333313 1281.000000,1281.000000 
	C1137.500000,1281.000000 994.000000,1281.000000 850.000000,1281.000000 
M604.073547,817.630432 
	C604.673096,817.984314 605.272705,818.338196 606.286682,819.281067 
	C607.188660,821.193359 608.090698,823.105652 608.828308,825.664368 
	C608.596863,830.130554 608.365356,834.596802 607.831726,839.681702 
	C607.542969,840.778931 607.254211,841.876099 606.455994,843.461975 
	C605.645630,845.975037 604.835266,848.488037 603.497437,851.439819 
	C593.675232,873.698059 583.853027,895.956299 573.865417,918.589294 
	C575.453430,918.892822 576.244324,919.173157 577.036438,919.176636 
	C600.860229,919.280457 624.684204,919.387878 648.507874,919.350342 
	C649.759155,919.348389 651.348145,918.367493 652.207092,917.355957 
	C663.081604,904.550049 673.527405,891.365356 684.726807,878.853943 
	C699.470276,862.383362 714.277893,845.905396 730.069397,830.465088 
	C737.909851,822.799011 747.820679,817.150146 757.155029,811.148865 
	C762.950195,807.422974 769.575195,806.707947 776.377441,808.986816 
	C779.995117,810.198792 783.729187,811.159607 787.480530,811.860413 
	C810.496399,816.159973 831.372742,810.689880 850.681702,797.948547 
	C852.344727,796.851135 854.572998,796.321838 856.598938,796.112610 
	C865.321045,795.211914 874.376526,795.721741 882.743103,793.540894 
	C906.708679,787.293945 924.671265,773.160400 932.862671,749.172180 
	C937.657471,735.130676 942.535034,722.143555 952.791199,710.301514 
	C971.087646,689.176270 973.721680,663.615906 961.773071,638.341553 
	C957.357727,629.002075 958.028076,621.590271 961.181152,613.102356 
	C961.239197,612.946167 961.305908,612.792603 961.353577,612.633362 
	C969.066650,586.890930 967.317871,561.549072 957.471130,536.787964 
	C946.802734,509.960358 927.284790,490.064758 905.417603,472.180664 
	C901.989075,469.376678 899.558167,466.425262 898.249390,461.895569 
	C892.621887,442.418671 882.234985,425.914795 866.810059,412.470398 
	C847.939941,396.023041 825.700195,388.334473 801.258667,386.071503 
	C797.522522,385.725616 795.359924,384.245453 793.264832,381.297760 
	C780.049194,362.704224 762.750854,349.091278 741.073792,342.047882 
	C715.860046,333.855286 690.800598,336.298218 666.203491,345.674255 
	C664.035889,346.500519 660.938049,346.528290 658.832336,345.623535 
	C635.168396,335.455902 610.532959,331.780304 585.055359,334.885284 
	C569.873169,336.735535 554.824158,339.674835 539.711792,342.102844 
	C518.811462,345.460785 499.092651,352.353455 482.666077,365.756897 
	C466.984772,378.552216 452.385895,392.716217 437.787872,406.773590 
	C432.832092,411.545837 427.684692,414.192749 420.978180,415.366302 
	C406.785492,417.849915 393.168701,422.264069 381.271362,430.800354 
	C349.684937,453.463470 334.164307,484.583679 332.515839,523.122131 
	C332.402679,525.768799 330.934113,528.927795 329.060638,530.827637 
	C321.882355,538.107117 315.624695,545.953430 311.006012,555.118103 
	C299.157654,578.628296 294.818726,603.086731 301.507111,629.736755 
	C303.713257,636.696289 304.543335,644.566040 308.416962,650.422729 
	C316.074707,662.000610 316.787720,674.621277 318.055267,687.641174 
	C320.910522,716.969238 340.823639,743.168945 373.480988,749.558228 
	C375.591156,749.971008 377.567444,751.412842 379.440796,752.630127 
	C386.667480,757.326233 393.429047,762.926147 401.087646,766.733582 
	C422.507416,777.382629 445.381195,777.447266 468.525970,774.542786 
	C474.096130,773.843750 479.803558,773.132874 485.348755,773.600952 
	C493.596222,774.297180 499.256531,780.278442 505.265350,785.245239 
	C530.907654,806.440918 559.299927,819.700745 593.614258,816.365356 
	C596.989563,816.037292 600.475769,816.849121 603.956421,817.042297 
	C603.956421,817.042297 603.862549,817.078552 604.073547,817.630432 
z"/>
<path fill="#8F43C8" opacity="1.000000" stroke="none" 
	d="
M608.992676,825.017944 
	C608.090698,823.105652 607.188660,821.193359 605.963074,818.755188 
	C605.047119,817.845764 604.454834,817.462158 603.862549,817.078552 
	C603.862549,817.078552 603.956421,817.042297 603.923584,816.708130 
	C602.047241,815.251770 600.253052,813.258728 598.352051,813.151062 
	C587.309204,812.525513 576.203613,812.783813 565.196289,811.841980 
	C558.843689,811.298279 551.643372,810.528259 546.652466,807.155273 
	C541.989685,804.004211 536.947693,803.438843 532.310608,801.210327 
	C531.426086,800.785339 530.453186,800.500671 529.647583,799.961975 
	C524.494019,796.516052 519.345886,793.060120 514.260498,789.514832 
	C512.224426,788.095459 510.071655,786.685547 508.465729,784.841431 
	C505.472504,781.404236 502.503143,778.520630 498.329437,776.022949 
	C490.786163,771.508850 483.087677,770.266357 474.888306,770.647949 
	C468.350891,770.952209 461.850403,772.900513 455.344910,772.842590 
	C445.528137,772.755371 435.705139,771.720215 425.917297,770.757690 
	C421.302673,770.303833 416.499878,769.743835 412.252869,768.051270 
	C406.098511,765.598511 400.441650,761.927917 394.443726,759.044739 
	C386.295929,755.128113 380.284241,748.208435 370.993774,745.399658 
	C356.726654,741.086243 343.038391,734.461304 334.014221,721.460510 
	C332.149841,718.774536 330.626312,715.806274 329.276245,712.818787 
	C326.727142,707.178162 323.676788,701.612000 322.211090,695.675110 
	C320.641785,689.318665 320.701294,682.565857 319.969757,675.994934 
	C319.442383,671.257507 320.359406,665.363342 317.881470,662.029968 
	C311.065491,652.860901 307.761047,642.556702 304.783813,631.920532 
	C304.487976,630.863708 303.614777,629.968567 303.010193,628.598389 
	C303.795227,624.738770 303.879944,621.601990 301.538605,618.372437 
	C300.536743,616.990479 301.398529,614.237305 301.462189,612.108643 
	C301.526093,609.972839 302.152954,607.715332 301.663635,605.724915 
	C299.236542,595.852600 302.996948,586.753357 305.144836,577.535889 
	C306.290283,572.620178 309.170959,568.135193 310.897888,563.322815 
	C314.041870,554.561829 318.719147,546.858337 325.194824,540.140930 
	C329.378082,535.801514 334.307617,531.874084 335.019714,525.146790 
	C335.887390,516.949158 336.684113,508.728577 338.035706,500.605133 
	C338.580353,497.331848 340.733582,494.360535 341.777496,491.129913 
	C345.964050,478.173920 351.110077,465.754883 360.638031,455.654602 
	C361.880798,454.337189 363.215637,453.106781 364.503510,451.831665 
	C368.446503,447.927795 371.863800,443.162720 376.473358,440.353394 
	C381.276489,437.426056 383.529999,432.347778 389.170349,429.670654 
	C397.398285,425.765320 405.351501,422.661041 414.340637,421.929596 
	C415.237244,421.856659 416.080505,421.207062 416.962494,420.860687 
	C419.421844,419.894836 421.875977,418.913513 424.355072,418.000610 
	C428.863434,416.340515 434.268829,415.774536 437.724213,412.874512 
	C445.055298,406.721741 451.395020,399.383179 458.096558,392.487427 
	C460.329590,390.189728 462.256683,387.569122 464.637085,385.447906 
	C466.725464,383.586975 469.749207,382.635773 471.496307,380.557007 
	C477.657562,373.226013 484.380280,366.782196 493.364960,362.969696 
	C497.195831,361.344147 500.767365,359.117554 504.549652,357.364532 
	C509.146271,355.234100 513.846375,353.327576 518.490845,351.299286 
	C520.510742,350.417206 522.455322,349.340454 524.520508,348.589783 
	C527.239563,347.601471 529.990051,346.527740 532.821350,346.053101 
	C540.902100,344.698486 549.050537,343.748352 557.133911,342.407379 
	C563.237061,341.394928 569.237854,341.050049 575.354065,338.500397 
	C581.906006,335.769073 590.038696,335.757843 597.375916,336.223419 
	C609.612488,336.999817 622.138611,336.306580 633.870178,341.350891 
	C638.025208,343.137390 642.650574,343.795715 646.927185,345.340179 
	C657.838562,349.280823 669.067749,350.429993 679.533569,345.364319 
	C686.660889,341.914581 693.955078,341.542267 701.198975,341.199127 
	C713.865479,340.599152 726.744080,339.979889 738.908813,344.986511 
	C742.210571,346.345459 745.186646,348.747101 748.580139,349.585052 
	C758.978516,352.152740 766.377502,359.536041 774.690735,365.366577 
	C777.408569,367.272766 778.648438,371.161011 781.013123,373.729584 
	C783.634460,376.577057 787.599731,378.462799 789.477112,381.651947 
	C791.997437,385.933197 795.102234,388.407410 799.806335,389.095825 
	C805.439270,389.920197 811.207764,390.147400 816.702393,391.504333 
	C823.579773,393.202728 830.238342,395.787018 836.995728,397.994446 
	C837.000000,398.000000 837.011414,398.008667 837.235229,398.277527 
	C840.856323,399.836761 844.366699,400.891235 847.631348,402.457947 
	C862.605469,409.644073 873.042786,422.229614 882.464539,434.990112 
	C889.072815,443.940155 892.116699,455.509857 896.849426,465.865356 
	C898.055420,468.503998 899.248413,471.305450 901.112793,473.454895 
	C905.513184,478.527924 912.108704,480.927734 916.090515,487.013702 
	C919.316223,491.944092 925.735962,494.672852 929.584717,499.331726 
	C936.710083,507.956970 943.963623,516.742676 949.335083,526.471313 
	C954.163452,535.216492 956.966003,545.186401 959.896423,554.848328 
	C964.209473,569.069031 962.982239,583.746033 961.791138,598.262451 
	C961.412354,602.879150 959.696106,607.535706 957.837036,611.848694 
	C954.517700,619.549561 952.026611,627.969238 957.011597,634.852112 
	C962.487488,642.412964 964.836975,650.958252 965.510742,659.174438 
	C966.628479,672.805664 966.723450,687.112000 956.197815,698.402771 
	C955.663879,698.975464 955.471985,699.855774 955.067749,700.562500 
	C953.313904,703.629211 951.870605,706.946838 949.697632,709.683411 
	C946.331604,713.922607 942.434448,717.737183 938.813904,721.777954 
	C933.637817,727.554749 933.635254,735.417419 931.380371,742.234192 
	C928.959106,749.553955 926.168518,756.434143 921.812378,762.623962 
	C917.105347,769.312317 912.846741,776.435181 904.678467,779.961182 
	C897.077637,783.242249 890.124817,788.503174 882.274536,790.596863 
	C873.972961,792.810913 864.940613,792.231445 856.244507,793.052612 
	C853.665833,793.296082 850.628967,793.438232 848.687195,794.846985 
	C840.580322,800.728027 831.323914,804.527771 822.040833,807.135071 
	C807.553284,811.204163 792.563477,812.411743 777.862366,806.594666 
	C775.022217,805.470825 771.606873,804.835876 768.620728,805.226868 
	C759.624146,806.404846 751.152710,809.386169 743.764282,814.849243 
	C738.013000,819.101868 732.321899,823.442383 726.728516,827.900024 
	C722.512024,831.260315 718.256104,834.631409 714.454468,838.434387 
	C710.927856,841.962219 708.116943,846.194885 704.727051,849.874146 
	C702.642883,852.136108 699.672302,853.630127 697.777649,856.008850 
	C691.481262,863.913879 685.428284,872.016357 679.404358,880.133850 
	C674.498108,886.745239 667.348816,891.217896 663.228455,898.779785 
	C660.233459,904.276367 654.631226,908.288513 650.860107,913.450989 
	C648.767761,916.315247 646.534241,917.025269 643.416992,917.019226 
	C623.258057,916.980408 603.098938,916.999756 582.939880,916.998474 
	C582.106995,916.998413 580.926208,917.323914 580.512939,916.903137 
	C579.630981,916.005310 578.320740,914.365295 578.628052,913.642700 
	C581.592285,906.673218 584.850037,899.828430 588.035522,892.953369 
	C593.334045,881.518188 598.710571,870.118347 603.887329,858.628418 
	C604.957825,856.252686 605.298523,853.548157 606.129517,850.659546 
	C606.510803,847.873779 606.738159,845.423523 606.965454,842.973328 
	C607.254211,841.876099 607.542969,840.778931 608.365356,839.346313 
	C613.361694,835.526794 613.415955,827.416199 608.992676,825.017944 
M807.248596,547.015869 
	C801.155823,548.765747 793.434692,555.159546 794.296875,558.700378 
	C796.728210,568.686462 793.032166,577.570068 789.902161,586.458984 
	C788.122070,591.514343 785.627563,596.781799 782.022339,600.601868 
	C778.343933,604.499329 776.533569,610.180664 770.438660,612.163635 
	C765.298340,613.836060 760.953918,617.999512 755.803101,619.583069 
	C749.964417,621.378174 743.597717,621.396606 737.501709,622.430298 
	C731.378967,623.468689 725.351990,625.414246 719.202148,625.868896 
	C710.090881,626.542603 702.856873,633.010803 705.090454,643.493591 
	C705.865234,647.129700 712.953796,654.057922 715.580322,653.645813 
	C725.138245,652.146484 734.760498,650.913147 744.204102,648.866943 
	C754.585022,646.617798 765.656311,647.828430 775.380859,642.067566 
	C781.275146,638.575684 788.520508,637.368835 793.047363,631.555237 
	C794.697327,629.436340 796.208496,627.202515 797.948486,625.162292 
	C800.809021,621.808289 804.655457,618.998352 806.572266,615.195862 
	C811.064941,606.283813 817.735962,598.209045 817.573730,587.265747 
	C817.526184,584.062073 820.198364,580.908752 820.858459,577.580566 
	C821.639709,573.641235 821.714355,569.542542 821.880737,565.504150 
	C822.323059,554.765320 822.316711,548.743713 809.183228,547.846680 
	C808.772278,547.818604 808.395264,547.294556 808.273193,546.890137 
	C808.181519,546.925964 808.089905,546.961792 807.248596,547.015869 
M749.723145,543.232483 
	C755.016479,538.088928 761.830688,533.796692 765.285828,527.624146 
	C772.433899,514.854492 781.606567,504.102966 791.829346,493.881775 
	C797.776794,487.935303 801.049011,479.576019 800.277649,471.694427 
	C799.209534,460.780670 794.044739,451.737885 781.755798,448.135376 
	C768.875427,444.359558 752.518127,452.981842 750.179871,466.219055 
	C749.405701,470.601807 749.563965,475.142853 748.930969,479.559204 
	C748.491638,482.625000 748.115601,486.045532 746.509094,488.530365 
	C742.467407,494.782135 737.985962,500.836243 730.250732,503.158142 
	C727.313965,504.039703 724.449036,505.164825 721.564270,506.214447 
	C712.593567,509.478333 703.658936,512.844360 694.651428,516.002991 
	C688.824280,518.046326 682.518311,519.059692 677.089233,521.831848 
	C666.182617,527.400818 655.555542,533.576721 645.136414,540.024597 
	C634.066895,546.874878 623.234924,554.135742 612.583557,561.621826 
	C608.564331,564.446655 604.418579,567.845276 601.931213,571.951904 
	C594.988220,583.415161 589.523926,595.805237 582.201660,606.995667 
	C577.912109,613.551270 571.831116,619.448669 565.359131,623.903259 
	C559.979675,627.605957 552.845398,628.749939 546.500977,631.061951 
	C535.645569,635.017822 524.870300,638.196350 522.239624,652.506470 
	C520.558533,661.651428 521.360657,668.895569 527.305420,675.899353 
	C531.957825,681.380493 538.158813,684.031738 544.609375,686.210571 
	C551.578430,688.564575 554.615479,693.796692 556.045776,700.413757 
	C557.652893,707.848572 558.926086,715.373779 563.815002,721.618835 
	C569.304993,728.631775 575.522583,733.720154 585.219116,734.168701 
	C596.430115,734.687317 602.980896,727.941406 608.335388,720.167908 
	C612.064575,714.753906 612.225159,708.048889 609.412170,701.284729 
	C606.322693,693.855408 603.296631,686.082703 602.235901,678.191650 
	C599.916260,660.935486 609.898438,649.137573 621.957214,638.588013 
	C626.608154,634.519165 631.718262,630.521240 635.017029,625.449097 
	C643.608582,612.238708 650.414612,597.732483 663.698669,588.213013 
	C666.657532,586.092651 671.493530,585.530884 673.110229,582.837708 
	C675.789673,578.374451 679.982178,578.295227 683.708435,576.676758 
	C698.519653,570.243652 713.545837,564.261353 728.088257,557.271362 
	C735.570801,553.674805 742.202759,548.308594 749.723145,543.232483 
M517.428894,505.036377 
	C514.496399,506.185364 511.445374,507.101959 508.652985,508.525757 
	C499.309387,513.289978 490.124268,518.367310 480.746887,523.061890 
	C475.182861,525.847351 469.259094,527.916138 463.705170,530.719421 
	C458.818970,533.185730 455.911682,537.615051 454.306549,542.739075 
	C452.674744,547.948242 457.133392,558.168457 461.790253,558.511108 
	C467.253052,558.913147 473.365387,558.866455 478.261810,556.800354 
	C487.743256,552.799622 496.541870,547.193909 505.696503,542.392517 
	C507.265320,541.569702 509.496124,541.878052 510.911591,540.914978 
	C520.508789,534.384766 532.584656,531.759705 540.174561,522.001648 
	C542.770630,518.663940 547.501953,516.558533 549.070618,512.941589 
	C552.116821,505.917755 557.508911,500.184692 559.203552,492.394684 
	C561.237183,483.046234 563.893921,473.786896 567.009094,464.739655 
	C568.584534,460.164093 567.898132,455.709961 565.095459,453.304749 
	C561.869690,450.536438 556.784790,448.468048 552.597656,448.617920 
	C545.704285,448.864716 540.830872,455.478882 539.921204,462.701263 
	C539.619019,465.101501 538.654053,467.446686 537.793518,469.742584 
	C535.606445,475.577209 532.887390,481.247986 531.158264,487.209686 
	C528.952087,494.815887 524.045593,500.113983 517.428894,505.036377 
M398.027466,590.581787 
	C387.713257,597.822327 392.417328,607.674438 399.042969,614.997375 
	C400.924896,617.077393 403.033325,618.952881 404.908325,621.038635 
	C409.352936,625.982727 413.639801,631.070190 418.136719,635.965393 
	C425.194763,643.648621 432.201599,651.393616 439.587830,658.753418 
	C442.421265,661.576660 445.955048,664.212646 449.667633,665.522827 
	C455.966309,667.745605 462.915497,664.949768 465.307922,660.317932 
	C468.962097,653.243347 468.108673,648.374329 462.576324,642.981018 
	C457.719421,638.246094 452.937317,633.425415 448.302734,628.473572 
	C439.885529,619.480347 431.613068,610.351746 423.255707,601.302246 
	C421.257385,599.138428 418.759430,597.323547 417.194092,594.895142 
	C413.625305,589.358704 404.456848,586.834167 398.027466,590.581787 
z"/>
<path fill="#8956B0" opacity="1.000000" stroke="none" 
	d="
M836.991394,397.988922 
	C830.238342,395.787018 823.579773,393.202728 816.702393,391.504333 
	C811.207764,390.147400 805.439270,389.920197 799.806335,389.095825 
	C795.102234,388.407410 791.997437,385.933197 789.477112,381.651947 
	C787.599731,378.462799 783.634460,376.577057 781.013123,373.729584 
	C778.648438,371.161011 777.408569,367.272766 774.690735,365.366577 
	C766.377502,359.536041 758.978516,352.152740 748.580139,349.585052 
	C745.186646,348.747101 742.210571,346.345459 738.908813,344.986511 
	C726.744080,339.979889 713.865479,340.599152 701.198975,341.199127 
	C693.955078,341.542267 686.660889,341.914581 679.533569,345.364319 
	C669.067749,350.429993 657.838562,349.280823 646.927185,345.340179 
	C642.650574,343.795715 638.025208,343.137390 633.870178,341.350891 
	C622.138611,336.306580 609.612488,336.999817 597.375916,336.223419 
	C590.038696,335.757843 581.906006,335.769073 575.354065,338.500397 
	C569.237854,341.050049 563.237061,341.394928 557.133911,342.407379 
	C549.050537,343.748352 540.902100,344.698486 532.821350,346.053101 
	C529.990051,346.527740 527.239563,347.601471 524.520508,348.589783 
	C522.455322,349.340454 520.510742,350.417206 518.490845,351.299286 
	C513.846375,353.327576 509.146271,355.234100 504.549652,357.364532 
	C500.767365,359.117554 497.195831,361.344147 493.364960,362.969696 
	C484.380280,366.782196 477.657562,373.226013 471.496307,380.557007 
	C469.749207,382.635773 466.725464,383.586975 464.637085,385.447906 
	C462.256683,387.569122 460.329590,390.189728 458.096558,392.487427 
	C451.395020,399.383179 445.055298,406.721741 437.724213,412.874512 
	C434.268829,415.774536 428.863434,416.340515 424.355072,418.000610 
	C421.875977,418.913513 419.421844,419.894836 416.962494,420.860687 
	C416.080505,421.207062 415.237244,421.856659 414.340637,421.929596 
	C405.351501,422.661041 397.398285,425.765320 389.170349,429.670654 
	C383.529999,432.347778 381.276489,437.426056 376.473358,440.353394 
	C371.863800,443.162720 368.446503,447.927795 364.503510,451.831665 
	C363.215637,453.106781 361.880798,454.337189 360.638031,455.654602 
	C351.110077,465.754883 345.964050,478.173920 341.777496,491.129913 
	C340.733582,494.360535 338.580353,497.331848 338.035706,500.605133 
	C336.684113,508.728577 335.887390,516.949158 335.019714,525.146790 
	C334.307617,531.874084 329.378082,535.801514 325.194824,540.140930 
	C318.719147,546.858337 314.041870,554.561829 310.897888,563.322815 
	C309.170959,568.135193 306.290283,572.620178 305.144836,577.535889 
	C302.996948,586.753357 299.236542,595.852600 301.663635,605.724915 
	C302.152954,607.715332 301.526093,609.972839 301.462189,612.108643 
	C301.398529,614.237305 300.536743,616.990479 301.538605,618.372437 
	C303.879944,621.601990 303.795227,624.738770 302.734070,628.597900 
	C302.089722,628.992615 301.722137,628.987854 301.354523,628.983032 
	C294.818726,603.086731 299.157654,578.628296 311.006012,555.118103 
	C315.624695,545.953430 321.882355,538.107117 329.060638,530.827637 
	C330.934113,528.927795 332.402679,525.768799 332.515839,523.122131 
	C334.164307,484.583679 349.684937,453.463470 381.271362,430.800354 
	C393.168701,422.264069 406.785492,417.849915 420.978180,415.366302 
	C427.684692,414.192749 432.832092,411.545837 437.787872,406.773590 
	C452.385895,392.716217 466.984772,378.552216 482.666077,365.756897 
	C499.092651,352.353455 518.811462,345.460785 539.711792,342.102844 
	C554.824158,339.674835 569.873169,336.735535 585.055359,334.885284 
	C610.532959,331.780304 635.168396,335.455902 658.832336,345.623535 
	C660.938049,346.528290 664.035889,346.500519 666.203491,345.674255 
	C690.800598,336.298218 715.860046,333.855286 741.073792,342.047882 
	C762.750854,349.091278 780.049194,362.704224 793.264832,381.297760 
	C795.359924,384.245453 797.522522,385.725616 801.258667,386.071503 
	C825.700195,388.334473 847.939941,396.023041 866.810059,412.470398 
	C882.234985,425.914795 892.621887,442.418671 898.249390,461.895569 
	C899.558167,466.425262 901.989075,469.376678 905.417603,472.180664 
	C927.284790,490.064758 946.802734,509.960358 957.471130,536.787964 
	C967.317871,561.549072 969.066650,586.890930 961.353577,612.633362 
	C961.305908,612.792603 961.239197,612.946167 961.181152,613.102356 
	C958.028076,621.590271 957.357727,629.002075 961.773071,638.341553 
	C973.721680,663.615906 971.087646,689.176270 952.791199,710.301514 
	C942.535034,722.143555 937.657471,735.130676 932.862671,749.172180 
	C924.671265,773.160400 906.708679,787.293945 882.743103,793.540894 
	C874.376526,795.721741 865.321045,795.211914 856.598938,796.112610 
	C854.572998,796.321838 852.344727,796.851135 850.681702,797.948547 
	C831.372742,810.689880 810.496399,816.159973 787.480530,811.860413 
	C783.729187,811.159607 779.995117,810.198792 776.377441,808.986816 
	C769.575195,806.707947 762.950195,807.422974 757.155029,811.148865 
	C747.820679,817.150146 737.909851,822.799011 730.069397,830.465088 
	C714.277893,845.905396 699.470276,862.383362 684.726807,878.853943 
	C673.527405,891.365356 663.081604,904.550049 652.207092,917.355957 
	C651.348145,918.367493 649.759155,919.348389 648.507874,919.350342 
	C624.684204,919.387878 600.860229,919.280457 577.036438,919.176636 
	C576.244324,919.173157 575.453430,918.892822 573.865417,918.589294 
	C583.853027,895.956299 593.675232,873.698059 604.086365,851.221558 
	C605.108704,851.000488 605.542175,850.997803 605.975586,850.995117 
	C605.298523,853.548157 604.957825,856.252686 603.887329,858.628418 
	C598.710571,870.118347 593.334045,881.518188 588.035522,892.953369 
	C584.850037,899.828430 581.592285,906.673218 578.628052,913.642700 
	C578.320740,914.365295 579.630981,916.005310 580.512939,916.903137 
	C580.926208,917.323914 582.106995,916.998413 582.939880,916.998474 
	C603.098938,916.999756 623.258057,916.980408 643.416992,917.019226 
	C646.534241,917.025269 648.767761,916.315247 650.860107,913.450989 
	C654.631226,908.288513 660.233459,904.276367 663.228455,898.779785 
	C667.348816,891.217896 674.498108,886.745239 679.404358,880.133850 
	C685.428284,872.016357 691.481262,863.913879 697.777649,856.008850 
	C699.672302,853.630127 702.642883,852.136108 704.727051,849.874146 
	C708.116943,846.194885 710.927856,841.962219 714.454468,838.434387 
	C718.256104,834.631409 722.512024,831.260315 726.728516,827.900024 
	C732.321899,823.442383 738.013000,819.101868 743.764282,814.849243 
	C751.152710,809.386169 759.624146,806.404846 768.620728,805.226868 
	C771.606873,804.835876 775.022217,805.470825 777.862366,806.594666 
	C792.563477,812.411743 807.553284,811.204163 822.040833,807.135071 
	C831.323914,804.527771 840.580322,800.728027 848.687195,794.846985 
	C850.628967,793.438232 853.665833,793.296082 856.244507,793.052612 
	C864.940613,792.231445 873.972961,792.810913 882.274536,790.596863 
	C890.124817,788.503174 897.077637,783.242249 904.678467,779.961182 
	C912.846741,776.435181 917.105347,769.312317 921.812378,762.623962 
	C926.168518,756.434143 928.959106,749.553955 931.380371,742.234192 
	C933.635254,735.417419 933.637817,727.554749 938.813904,721.777954 
	C942.434448,717.737183 946.331604,713.922607 949.697632,709.683411 
	C951.870605,706.946838 953.313904,703.629211 955.067749,700.562500 
	C955.471985,699.855774 955.663879,698.975464 956.197815,698.402771 
	C966.723450,687.112000 966.628479,672.805664 965.510742,659.174438 
	C964.836975,650.958252 962.487488,642.412964 957.011597,634.852112 
	C952.026611,627.969238 954.517700,619.549561 957.837036,611.848694 
	C959.696106,607.535706 961.412354,602.879150 961.791138,598.262451 
	C962.982239,583.746033 964.209473,569.069031 959.896423,554.848328 
	C956.966003,545.186401 954.163452,535.216492 949.335083,526.471313 
	C943.963623,516.742676 936.710083,507.956970 929.584717,499.331726 
	C925.735962,494.672852 919.316223,491.944092 916.090515,487.013702 
	C912.108704,480.927734 905.513184,478.527924 901.112793,473.454895 
	C899.248413,471.305450 898.055420,468.503998 896.849426,465.865356 
	C892.116699,455.509857 889.072815,443.940155 882.464539,434.990112 
	C873.042786,422.229614 862.605469,409.644073 847.631348,402.457947 
	C844.366699,400.891235 840.856323,399.836761 837.374084,398.220886 
	C837.189819,397.926605 837.090637,397.957764 836.991394,397.988922 
z"/>
<path fill="#8D58B2" opacity="1.000000" stroke="none" 
	d="
M301.430817,629.359924 
	C301.722137,628.987854 302.089722,628.992615 302.733459,628.997864 
	C303.614777,629.968567 304.487976,630.863708 304.783813,631.920532 
	C307.761047,642.556702 311.065491,652.860901 317.881470,662.029968 
	C320.359406,665.363342 319.442383,671.257507 319.969757,675.994934 
	C320.701294,682.565857 320.641785,689.318665 322.211090,695.675110 
	C323.676788,701.612000 326.727142,707.178162 329.276245,712.818787 
	C330.626312,715.806274 332.149841,718.774536 334.014221,721.460510 
	C343.038391,734.461304 356.726654,741.086243 370.993774,745.399658 
	C380.284241,748.208435 386.295929,755.128113 394.443726,759.044739 
	C400.441650,761.927917 406.098511,765.598511 412.252869,768.051270 
	C416.499878,769.743835 421.302673,770.303833 425.917297,770.757690 
	C435.705139,771.720215 445.528137,772.755371 455.344910,772.842590 
	C461.850403,772.900513 468.350891,770.952209 474.888306,770.647949 
	C483.087677,770.266357 490.786163,771.508850 498.329437,776.022949 
	C502.503143,778.520630 505.472504,781.404236 508.465729,784.841431 
	C510.071655,786.685547 512.224426,788.095459 514.260498,789.514832 
	C519.345886,793.060120 524.494019,796.516052 529.647583,799.961975 
	C530.453186,800.500671 531.426086,800.785339 532.310608,801.210327 
	C536.947693,803.438843 541.989685,804.004211 546.652466,807.155273 
	C551.643372,810.528259 558.843689,811.298279 565.196289,811.841980 
	C576.203613,812.783813 587.309204,812.525513 598.352051,813.151062 
	C600.253052,813.258728 602.047241,815.251770 603.900635,816.752869 
	C600.475769,816.849121 596.989563,816.037292 593.614258,816.365356 
	C559.299927,819.700745 530.907654,806.440918 505.265350,785.245239 
	C499.256531,780.278442 493.596222,774.297180 485.348755,773.600952 
	C479.803558,773.132874 474.096130,773.843750 468.525970,774.542786 
	C445.381195,777.447266 422.507416,777.382629 401.087646,766.733582 
	C393.429047,762.926147 386.667480,757.326233 379.440796,752.630127 
	C377.567444,751.412842 375.591156,749.971008 373.480988,749.558228 
	C340.823639,743.168945 320.910522,716.969238 318.055267,687.641174 
	C316.787720,674.621277 316.074707,662.000610 308.416962,650.422729 
	C304.543335,644.566040 303.713257,636.696289 301.430817,629.359924 
z"/>
<path fill="#8D58B2" opacity="1.000000" stroke="none" 
	d="
M608.910522,825.341187 
	C613.415955,827.416199 613.361694,835.526794 608.516479,839.036987 
	C608.365356,834.596802 608.596863,830.130554 608.910522,825.341187 
z"/>
<path fill="#8D58B2" opacity="1.000000" stroke="none" 
	d="
M606.129517,850.659546 
	C605.542175,850.997803 605.108704,851.000488 604.350098,851.002197 
	C604.835266,848.488037 605.645630,845.975037 606.710754,843.217651 
	C606.738159,845.423523 606.510803,847.873779 606.129517,850.659546 
z"/>
<path fill="#8D58B2" opacity="1.000000" stroke="none" 
	d="
M603.968018,817.354492 
	C604.454834,817.462158 605.047119,817.845764 605.755859,818.460693 
	C605.272705,818.338196 604.673096,817.984314 603.968018,817.354492 
z"/>
<path fill="#9852CD" opacity="1.000000" stroke="none" 
	d="
M749.471069,543.487305 
	C742.202759,548.308594 735.570801,553.674805 728.088257,557.271362 
	C713.545837,564.261353 698.519653,570.243652 683.708435,576.676758 
	C679.982178,578.295227 675.789673,578.374451 673.110229,582.837708 
	C671.493530,585.530884 666.657532,586.092651 663.698669,588.213013 
	C650.414612,597.732483 643.608582,612.238708 635.017029,625.449097 
	C631.718262,630.521240 626.608154,634.519165 621.957214,638.588013 
	C609.898438,649.137573 599.916260,660.935486 602.235901,678.191650 
	C603.296631,686.082703 606.322693,693.855408 609.412170,701.284729 
	C612.225159,708.048889 612.064575,714.753906 608.335388,720.167908 
	C602.980896,727.941406 596.430115,734.687317 585.219116,734.168701 
	C575.522583,733.720154 569.304993,728.631775 563.815002,721.618835 
	C558.926086,715.373779 557.652893,707.848572 556.045776,700.413757 
	C554.615479,693.796692 551.578430,688.564575 544.609375,686.210571 
	C538.158813,684.031738 531.957825,681.380493 527.305420,675.899353 
	C521.360657,668.895569 520.558533,661.651428 522.239624,652.506470 
	C524.870300,638.196350 535.645569,635.017822 546.500977,631.061951 
	C552.845398,628.749939 559.979675,627.605957 565.359131,623.903259 
	C571.831116,619.448669 577.912109,613.551270 582.201660,606.995667 
	C589.523926,595.805237 594.988220,583.415161 601.931213,571.951904 
	C604.418579,567.845276 608.564331,564.446655 612.583557,561.621826 
	C623.234924,554.135742 634.066895,546.874878 645.136414,540.024597 
	C655.555542,533.576721 666.182617,527.400818 677.089233,521.831848 
	C682.518311,519.059692 688.824280,518.046326 694.651428,516.002991 
	C703.658936,512.844360 712.593567,509.478333 721.564270,506.214447 
	C724.449036,505.164825 727.313965,504.039703 730.250732,503.158142 
	C737.985962,500.836243 742.467407,494.782135 746.509094,488.530365 
	C748.115601,486.045532 748.491638,482.625000 748.930969,479.559204 
	C749.563965,475.142853 749.405701,470.601807 750.179871,466.219055 
	C752.518127,452.981842 768.875427,444.359558 781.755798,448.135376 
	C794.044739,451.737885 799.209534,460.780670 800.277649,471.694427 
	C801.049011,479.576019 797.776794,487.935303 791.829346,493.881775 
	C781.606567,504.102966 772.433899,514.854492 765.285828,527.624146 
	C761.830688,533.796692 755.016479,538.088928 749.471069,543.487305 
z"/>
<path fill="#8752AF" opacity="1.000000" stroke="none" 
	d="
M808.002441,547.001709 
	C808.395264,547.294556 808.772278,547.818604 809.183228,547.846680 
	C822.316711,548.743713 822.323059,554.765320 821.880737,565.504150 
	C821.714355,569.542542 821.639709,573.641235 820.858459,577.580566 
	C820.198364,580.908752 817.526184,584.062073 817.573730,587.265747 
	C817.735962,598.209045 811.064941,606.283813 806.572266,615.195862 
	C804.655457,618.998352 800.809021,621.808289 797.948486,625.162292 
	C796.208496,627.202515 794.697327,629.436340 793.047363,631.555237 
	C788.520508,637.368835 781.275146,638.575684 775.380859,642.067566 
	C765.656311,647.828430 754.585022,646.617798 744.204102,648.866943 
	C734.760498,650.913147 725.138245,652.146484 715.580322,653.645813 
	C712.953796,654.057922 705.865234,647.129700 705.090454,643.493591 
	C702.856873,633.010803 710.090881,626.542603 719.202148,625.868896 
	C725.351990,625.414246 731.378967,623.468689 737.501709,622.430298 
	C743.597717,621.396606 749.964417,621.378174 755.803101,619.583069 
	C760.953918,617.999512 765.298340,613.836060 770.438660,612.163635 
	C776.533569,610.180664 778.343933,604.499329 782.022339,600.601868 
	C785.627563,596.781799 788.122070,591.514343 789.902161,586.458984 
	C793.032166,577.570068 796.728210,568.686462 794.296875,558.700378 
	C793.434692,555.159546 801.155823,548.765747 807.624268,547.007935 
	C808.000000,547.000000 808.002441,547.001709 808.002441,547.001709 
M815.601746,584.003174 
	C816.796875,576.795654 818.145142,569.609192 819.142212,562.374390 
	C820.060608,555.710754 816.959106,551.474854 810.829346,550.384644 
	C805.461060,549.429810 799.957153,553.295593 798.791443,559.088623 
	C798.006714,562.988159 797.703369,566.983032 796.963013,570.893311 
	C794.662598,583.042725 791.538879,594.799194 783.582886,604.825745 
	C773.869934,617.066406 761.057495,623.076477 745.929443,625.069153 
	C736.529663,626.307129 727.146973,627.679077 717.767151,629.062195 
	C713.027405,629.761169 709.283447,631.808289 707.781372,636.807861 
	C706.311951,641.698792 708.295715,645.866089 712.039673,648.052307 
	C714.999268,649.780640 719.292908,650.080566 722.867920,649.729431 
	C731.630737,648.868652 740.296326,647.066406 749.044067,645.994995 
	C782.911682,641.846436 810.217834,617.029968 815.601746,584.003174 
z"/>
<path fill="#8956B0" opacity="1.000000" stroke="none" 
	d="
M517.792603,504.937836 
	C524.045593,500.113983 528.952087,494.815887 531.158264,487.209686 
	C532.887390,481.247986 535.606445,475.577209 537.793518,469.742584 
	C538.654053,467.446686 539.619019,465.101501 539.921204,462.701263 
	C540.830872,455.478882 545.704285,448.864716 552.597656,448.617920 
	C556.784790,448.468048 561.869690,450.536438 565.095459,453.304749 
	C567.898132,455.709961 568.584534,460.164093 567.009094,464.739655 
	C563.893921,473.786896 561.237183,483.046234 559.203552,492.394684 
	C557.508911,500.184692 552.116821,505.917755 549.070618,512.941589 
	C547.501953,516.558533 542.770630,518.663940 540.174561,522.001648 
	C532.584656,531.759705 520.508789,534.384766 510.911591,540.914978 
	C509.496124,541.878052 507.265320,541.569702 505.696503,542.392517 
	C496.541870,547.193909 487.743256,552.799622 478.261810,556.800354 
	C473.365387,558.866455 467.253052,558.913147 461.790253,558.511108 
	C457.133392,558.168457 452.674744,547.948242 454.306549,542.739075 
	C455.911682,537.615051 458.818970,533.185730 463.705170,530.719421 
	C469.259094,527.916138 475.182861,525.847351 480.746887,523.061890 
	C490.124268,518.367310 499.309387,513.289978 508.652985,508.525757 
	C511.445374,507.101959 514.496399,506.185364 517.792603,504.937836 
M457.644867,541.615112 
	C456.033325,546.128418 456.709930,550.276184 460.291779,553.481445 
	C463.825195,556.643311 468.009552,557.153992 472.409698,555.183777 
	C473.472137,554.708069 474.583038,554.334106 475.622559,553.815002 
	C491.555481,545.859131 507.516174,537.957764 523.396179,529.897522 
	C537.703247,522.635681 548.793213,512.240723 554.157898,496.708954 
	C557.688416,486.487305 561.020203,476.192352 564.204834,465.857452 
	C566.466797,458.516724 564.021606,453.820435 557.337402,451.736328 
	C550.878418,449.722443 546.068359,452.532990 543.826172,459.827850 
	C542.017334,465.712891 540.457764,471.674164 538.691711,477.572937 
	C534.206482,492.554688 527.149719,505.403717 511.963043,512.372498 
	C496.687469,519.382019 481.640350,526.899536 466.620117,534.447266 
	C463.459076,536.035645 460.850677,538.723877 457.644867,541.615112 
z"/>
<path fill="#8D58B2" opacity="1.000000" stroke="none" 
	d="
M398.325470,590.380310 
	C404.456848,586.834167 413.625305,589.358704 417.194092,594.895142 
	C418.759430,597.323547 421.257385,599.138428 423.255707,601.302246 
	C431.613068,610.351746 439.885529,619.480347 448.302734,628.473572 
	C452.937317,633.425415 457.719421,638.246094 462.576324,642.981018 
	C468.108673,648.374329 468.962097,653.243347 465.307922,660.317932 
	C462.915497,664.949768 455.966309,667.745605 449.667633,665.522827 
	C445.955048,664.212646 442.421265,661.576660 439.587830,658.753418 
	C432.201599,651.393616 425.194763,643.648621 418.136719,635.965393 
	C413.639801,631.070190 409.352936,625.982727 404.908325,621.038635 
	C403.033325,618.952881 400.924896,617.077393 399.042969,614.997375 
	C392.417328,607.674438 387.713257,597.822327 398.325470,590.380310 
M452.504913,636.003723 
	C439.343201,622.147705 426.154724,608.317017 413.041290,594.415466 
	C410.261200,591.468262 407.071136,590.333923 403.156799,591.235962 
	C394.663971,593.193115 391.433411,602.299805 397.519287,609.087402 
	C409.271149,622.194397 421.575897,634.806458 433.687653,647.589355 
	C438.023163,652.165100 442.174713,656.976746 446.932495,661.074341 
	C452.259338,665.661987 457.635590,664.844116 462.203735,659.608643 
	C466.401398,654.797791 466.040619,649.330261 461.185822,644.523193 
	C458.472382,641.836426 455.732422,639.176392 452.504913,636.003723 
z"/>
<path fill="#8752AF" opacity="1.000000" stroke="none" 
	d="
M807.999146,546.998779 
	C808.089905,546.961792 808.181519,546.925964 808.137817,546.945923 
	C808.002441,547.001709 808.000000,547.000000 807.999146,546.998779 
z"/>
<path fill="#8F43C8" opacity="1.000000" stroke="none" 
	d="
M836.995728,397.994446 
	C837.090637,397.957764 837.189819,397.926605 837.150269,397.952057 
	C837.011414,398.008667 837.000000,398.000000 836.995728,397.994446 
z"/>
<path fill="#FBF7FC" opacity="1.000000" stroke="none" 
	d="
M815.491638,584.409302 
	C810.217834,617.029968 782.911682,641.846436 749.044067,645.994995 
	C740.296326,647.066406 731.630737,648.868652 722.867920,649.729431 
	C719.292908,650.080566 714.999268,649.780640 712.039673,648.052307 
	C708.295715,645.866089 706.311951,641.698792 707.781372,636.807861 
	C709.283447,631.808289 713.027405,629.761169 717.767151,629.062195 
	C727.146973,627.679077 736.529663,626.307129 745.929443,625.069153 
	C761.057495,623.076477 773.869934,617.066406 783.582886,604.825745 
	C791.538879,594.799194 794.662598,583.042725 796.963013,570.893311 
	C797.703369,566.983032 798.006714,562.988159 798.791443,559.088623 
	C799.957153,553.295593 805.461060,549.429810 810.829346,550.384644 
	C816.959106,551.474854 820.060608,555.710754 819.142212,562.374390 
	C818.145142,569.609192 816.796875,576.795654 815.491638,584.409302 
z"/>
<path fill="#FBF7FC" opacity="1.000000" stroke="none" 
	d="
M457.816223,541.260254 
	C460.850677,538.723877 463.459076,536.035645 466.620117,534.447266 
	C481.640350,526.899536 496.687469,519.382019 511.963043,512.372498 
	C527.149719,505.403717 534.206482,492.554688 538.691711,477.572937 
	C540.457764,471.674164 542.017334,465.712891 543.826172,459.827850 
	C546.068359,452.532990 550.878418,449.722443 557.337402,451.736328 
	C564.021606,453.820435 566.466797,458.516724 564.204834,465.857452 
	C561.020203,476.192352 557.688416,486.487305 554.157898,496.708954 
	C548.793213,512.240723 537.703247,522.635681 523.396179,529.897522 
	C507.516174,537.957764 491.555481,545.859131 475.622559,553.815002 
	C474.583038,554.334106 473.472137,554.708069 472.409698,555.183777 
	C468.009552,557.153992 463.825195,556.643311 460.291779,553.481445 
	C456.709930,550.276184 456.033325,546.128418 457.816223,541.260254 
z"/>
<path fill="#FBF7FC" opacity="1.000000" stroke="none" 
	d="
M452.754669,636.254028 
	C455.732422,639.176392 458.472382,641.836426 461.185822,644.523193 
	C466.040619,649.330261 466.401398,654.797791 462.203735,659.608643 
	C457.635590,664.844116 452.259338,665.661987 446.932495,661.074341 
	C442.174713,656.976746 438.023163,652.165100 433.687653,647.589355 
	C421.575897,634.806458 409.271149,622.194397 397.519287,609.087402 
	C391.433411,602.299805 394.663971,593.193115 403.156799,591.235962 
	C407.071136,590.333923 410.261200,591.468262 413.041290,594.415466 
	C426.154724,608.317017 439.343201,622.147705 452.754669,636.254028 
z"/>
</svg>