<svg version="1.1" id="Layer_1" xmlns="http://www.w3.org/2000/svg" xmlns:xlink="http://www.w3.org/1999/xlink" x="0px" y="0px"
	 width="100%" viewBox="0 0 1024 1024" enable-background="new 0 0 1024 1024" xml:space="preserve">
<path fill="#000000" opacity="1.000000" stroke="none" 
	d="
M536.457886,614.476440 
	C529.393127,619.236572 522.574341,623.719971 515.881653,628.384338 
	C513.439758,630.086121 511.514160,629.891479 509.131683,628.227844 
	C479.908630,607.822266 450.209564,588.101379 421.730713,566.628784 
	C403.362396,552.779358 384.961304,538.966064 368.483582,522.874329 
	C351.789459,506.571350 337.935730,488.156830 328.704376,466.494385 
	C323.084747,453.307220 320.360016,439.539429 319.709076,425.312378 
	C318.950439,408.731812 320.477234,392.445801 325.481171,376.489380 
	C339.394653,332.122559 378.677246,300.650238 424.228210,300.573517 
	C449.520905,300.530914 472.002350,308.389923 492.710480,322.043304 
	C500.185181,326.971558 506.668213,333.317841 512.864380,340.900116 
	C518.370972,334.628265 523.942017,329.018890 530.497375,324.433228 
	C540.943298,317.125916 552.058289,311.241882 564.030579,306.875305 
	C567.904663,305.462341 571.338135,305.812622 575.112244,307.330322 
	C590.363525,313.463379 600.928223,324.665649 609.272888,338.324982 
	C621.539856,358.404877 628.525085,380.714233 636.245605,402.702484 
	C646.828674,432.843231 657.328674,463.013123 667.859192,493.155945 
	C669.159485,493.019531 668.784302,492.176575 668.666748,491.714386 
	C663.911255,473.015747 660.626587,453.986450 655.766357,435.302948 
	C650.825928,416.311066 647.271973,396.958588 641.590942,378.158630 
	C634.661743,355.227997 625.679138,333.262665 609.694458,314.848389 
	C605.209717,309.681976 599.881775,305.527252 594.152222,301.310822 
	C601.566284,300.983521 608.712830,300.125214 615.920593,301.323486 
	C666.496277,309.731781 700.690430,353.978699 705.550659,401.457489 
	C709.404602,439.105591 699.640503,472.234283 676.132568,501.677948 
	C659.377686,522.663330 639.186646,539.874756 618.065674,556.193665 
	C591.685181,576.576294 564.419312,595.698547 536.457886,614.476440 
M420.282257,488.689392 
	C423.056946,488.176300 425.884460,487.856506 428.596832,487.115387 
	C438.352905,484.449677 438.745819,483.802185 437.730072,473.859528 
	C436.530365,462.115570 436.530457,462.116516 424.524933,463.863037 
	C413.612427,465.450592 404.014771,462.536713 395.909698,455.123901 
	C393.463593,452.886658 390.563965,450.497375 391.965881,445.780304 
	C401.586517,449.078217 409.267670,458.666748 421.194733,454.543579 
	C420.717133,453.350342 420.479919,452.576385 420.110962,451.871429 
	C419.172668,450.078522 417.841370,448.022888 419.933655,446.507202 
	C421.793121,445.160156 423.265900,447.206024 424.683350,448.215302 
	C432.594757,453.848572 440.434448,453.034424 446.923798,445.877686 
	C452.293274,439.956024 457.553986,433.968414 464.868927,430.198639 
	C480.725494,422.026978 496.714722,423.436340 512.807556,429.193726 
	C519.341858,431.531525 520.583801,430.865631 520.721375,424.067535 
	C520.889343,415.766998 523.688110,408.584747 530.203064,403.435852 
	C535.373962,399.349182 537.005249,394.707397 534.914246,388.553680 
	C534.389832,387.010254 533.723572,385.056366 535.776794,384.175751 
	C537.712036,383.345795 538.784058,385.087708 539.807983,386.365814 
	C545.224548,393.127014 544.419739,401.920563 537.786621,408.858368 
	C527.633118,419.478271 527.374329,431.018677 536.997498,442.203217 
	C538.234375,443.640808 540.176331,444.773743 539.648804,447.237427 
	C537.237488,448.980591 535.152710,447.356171 533.106140,446.554047 
	C522.418884,442.365448 511.976746,437.658844 500.724091,434.865265 
	C472.647827,427.894958 451.870239,448.076904 447.637299,466.134918 
	C444.952515,477.588165 448.470428,486.687958 457.932098,493.603760 
	C468.632233,501.424774 480.088867,501.610382 492.178040,498.183838 
	C500.319550,495.876221 500.393768,495.961151 504.117004,503.310791 
	C509.512573,513.961670 516.729797,522.802979 527.854004,528.035400 
	C537.566956,532.604004 537.714905,533.607239 531.513245,542.784912 
	C531.047974,543.473511 530.475159,544.088501 529.992615,544.766418 
	C525.121643,551.609680 518.546082,556.847351 512.905518,562.961609 
	C508.127167,568.141235 508.331573,573.727539 513.095398,577.930359 
	C517.819580,582.098267 524.150574,581.553833 528.578308,576.468140 
	C531.542542,573.063293 533.854248,569.190674 536.058289,565.262024 
	C541.599670,555.384460 547.197388,545.537781 552.649048,535.610840 
	C554.864990,531.575745 558.029663,529.160706 562.433289,527.730774 
	C569.236023,525.521729 576.012634,523.108704 582.538147,520.194885 
	C597.038757,513.720093 608.685547,502.623291 606.418762,481.756622 
	C606.196350,479.708923 607.114563,478.254669 608.077209,476.690155 
	C614.587463,466.109924 614.210754,454.290314 606.810059,444.453552 
	C604.970032,442.007874 604.495972,439.681763 604.646423,436.647614 
	C605.256714,424.337769 601.030945,414.407654 589.353271,408.827972 
	C586.538757,407.483185 585.685547,405.229431 584.946655,402.618408 
	C582.839478,395.172363 578.147095,390.503113 570.306519,389.519653 
	C568.197998,389.255219 566.947876,388.345856 566.252869,386.426483 
	C560.429321,370.344208 547.545837,362.782684 531.903748,360.393311 
	C522.331360,358.931152 513.325195,357.482056 504.619232,352.750427 
	C498.421844,349.382202 490.969025,349.798157 484.306061,353.029572 
	C480.945374,354.659393 478.132294,354.897034 474.458954,353.402466 
	C460.260773,347.625732 441.747742,352.760345 435.196228,364.204834 
	C433.333588,367.458588 431.842010,368.195465 428.187531,367.019409 
	C418.246368,363.820129 407.179474,371.523956 406.235260,382.083557 
	C405.976807,384.973846 404.910614,386.264771 402.063202,386.501373 
	C384.893036,387.928101 372.261169,409.598114 377.181030,426.003876 
	C378.011627,428.773529 377.193787,430.641357 375.156342,432.604706 
	C367.559601,439.925079 368.071655,449.054352 371.348083,457.688477 
	C374.598969,466.255310 380.522339,472.833282 390.947052,472.871582 
	C392.759155,472.878265 394.541046,472.762329 395.462799,475.048737 
	C399.824341,485.867065 409.053162,488.289948 420.282257,488.689392 
z"/>
<path fill="#000000" opacity="1.000000" stroke="none" 
	d="
M541.440430,709.532349 
	C537.201599,704.260803 533.181396,699.270630 529.161255,694.280457 
	C528.788574,694.409790 528.415894,694.539185 528.043213,694.668579 
	C528.043213,706.435608 528.025024,718.202698 528.049988,729.969666 
	C528.065552,737.275269 528.094910,737.290100 521.045837,737.284790 
	C510.828583,737.277100 511.739288,738.091614 511.723969,727.754578 
	C511.695282,708.422363 511.791260,689.089417 511.634308,669.758423 
	C511.601593,665.731201 512.699036,664.789612 516.938843,664.364563 
	C524.527161,663.603638 528.716675,666.835388 532.824524,672.653992 
	C540.215820,683.123413 548.399475,693.035156 556.307739,703.136292 
	C557.395569,704.525879 558.331177,706.194031 560.264893,706.780701 
	C561.999695,705.394531 561.657227,703.452332 561.641113,701.708557 
	C561.545471,691.381592 562.160034,681.039734 561.185547,670.731201 
	C560.797119,666.622681 561.989746,664.650635 566.600769,664.613159 
	C578.190613,664.519165 578.034973,664.335083 577.969727,675.929871 
	C577.871338,693.423279 578.088379,710.918457 577.980042,728.411682 
	C577.961914,731.342529 579.598633,735.061218 576.010742,737.040710 
	C572.776367,738.825073 563.988281,737.020813 561.583313,734.196655 
	C557.696472,729.632202 554.041931,724.870483 550.256836,720.218567 
	C547.417419,716.728821 544.526917,713.280518 541.440430,709.532349 
z"/>
<path fill="#000000" opacity="1.000000" stroke="none" 
	d="
M656.169312,698.622986 
	C647.867920,687.639343 639.717224,676.963318 631.518372,666.224243 
	C634.598206,663.108093 637.557373,665.082336 640.150696,664.591125 
	C648.312622,663.044983 653.557800,666.202820 657.271729,673.660034 
	C659.588745,678.312317 663.053772,682.528564 667.189941,686.453308 
	C672.578064,681.414124 675.882446,675.210876 679.731995,669.501404 
	C682.170410,665.884888 684.767822,664.127869 689.132751,664.637634 
	C693.207214,665.113464 697.398987,664.009644 701.420776,665.216858 
	C702.271973,667.590088 700.597229,668.850464 699.484985,670.135925 
	C692.387268,678.338318 686.591675,687.525085 679.813232,695.957764 
	C677.554871,698.767151 677.492126,700.794800 679.799194,703.722534 
	C687.117310,713.009338 694.122070,722.543579 701.204834,732.014526 
	C702.161865,733.294250 703.642639,734.339844 703.536133,737.036743 
	C697.538269,737.036743 691.510071,737.153809 685.492310,736.954712 
	C683.984558,736.904846 683.264465,735.094910 682.379578,733.895264 
	C677.365906,727.098694 672.348083,720.305176 666.713623,712.673401 
	C662.493042,718.679871 658.790771,724.108948 654.908569,729.406189 
	C652.970093,732.051086 652.011292,736.346008 648.701355,736.880920 
	C642.757324,737.841492 636.598755,737.850647 630.632263,737.150757 
	C629.926941,734.212708 631.905518,733.065186 633.041931,731.559326 
	C640.463379,721.725403 647.925903,711.922485 655.372192,702.107239 
	C656.083008,701.170410 656.801514,700.227173 656.169312,698.622986 
z"/>
<path fill="#000000" opacity="1.000000" stroke="none" 
	d="
M332.502319,675.549072 
	C344.518707,660.765381 369.221954,660.834290 382.925690,668.695984 
	C385.015656,669.894958 386.561768,671.550781 388.001129,673.412354 
	C389.614166,675.498474 389.468262,677.355896 387.579773,679.145386 
	C386.975494,679.718018 386.331360,680.273987 385.841522,680.937927 
	C382.697968,685.198975 379.945404,686.110535 375.052216,682.274780 
	C365.956451,675.144897 353.392578,676.509705 346.519897,684.277649 
	C338.582672,693.248840 338.116577,707.624084 345.492554,715.963562 
	C353.245026,724.728699 365.842041,726.207214 375.883881,719.696228 
	C377.725647,718.502014 379.101776,715.422485 381.693665,716.648621 
	C384.842499,718.138367 387.306610,720.853271 389.271698,723.745178 
	C390.649536,725.772888 388.630371,727.135498 387.394928,728.353577 
	C378.201050,737.417358 366.873962,739.613586 354.602814,737.969360 
	C321.988281,733.599182 315.462128,694.393677 332.502319,675.549072 
z"/>
<path fill="#000000" opacity="1.000000" stroke="none" 
	d="
M411.470154,737.299988 
	C408.870331,737.111511 408.343170,735.752869 408.337128,733.845093 
	C408.270752,712.894714 408.275360,691.943176 408.013489,670.994995 
	C407.952820,666.142822 409.293488,664.360962 414.499603,664.541077 
	C426.038452,664.940186 425.047424,663.225586 425.053741,675.413818 
	C425.061005,689.386902 425.208221,703.361267 425.050690,717.332336 
	C425.002197,721.631775 426.436462,723.299866 430.836304,723.092407 
	C437.809753,722.763672 444.809998,723.036499 451.789520,722.789368 
	C455.518402,722.657349 457.204956,723.746338 457.252411,727.799377 
	C457.363922,737.327332 457.530182,737.319885 447.851624,737.317871 
	C435.874573,737.315369 423.897491,737.323120 411.470154,737.299988 
z"/>
<path fill="#000000" opacity="1.000000" stroke="none" 
	d="
M616.928711,693.934082 
	C615.807068,707.191223 617.612305,719.983826 616.560852,732.770996 
	C616.284058,736.136597 615.475647,737.468628 611.964844,737.409668 
	C597.579224,737.168152 600.030701,738.999329 599.985535,725.732910 
	C599.923828,707.615234 600.004395,689.497131 600.029846,671.379211 
	C600.037537,665.929260 600.147095,663.748901 606.890381,664.397278 
	C616.887939,665.358582 616.937683,664.822510 616.930969,674.993774 
	C616.926880,681.144043 616.929382,687.294250 616.928711,693.934082 
z"/>
<path fill="#000000" opacity="1.000000" stroke="none" 
	d="
M489.288818,729.916809 
	C489.255219,737.308289 489.255219,737.308289 482.476593,737.322083 
	C472.677887,737.341980 472.712067,737.341980 472.714233,727.611938 
	C472.718567,708.330444 472.791107,689.047668 472.573792,669.768372 
	C472.526917,665.608643 473.693909,664.392029 477.907166,664.524841 
	C489.258453,664.882812 489.250702,664.680542 489.251404,676.070251 
	C489.252533,693.855896 489.275055,711.641541 489.288818,729.916809 
z"/>
<path fill="#000000" opacity="1.000000" stroke="none" 
	d="
M485.866333,466.759705 
	C484.768311,461.910126 484.574554,457.662506 488.662567,454.478210 
	C489.425385,454.989807 489.908600,455.148804 489.926697,455.349701 
	C490.789642,464.927795 496.335144,469.072418 505.606415,470.166443 
	C517.081238,471.520477 528.486694,472.792236 539.779053,469.556732 
	C551.206116,466.282654 560.690369,460.212708 566.604736,449.450989 
	C568.773071,445.505615 571.243835,441.742767 574.269226,438.388855 
	C575.701721,436.800659 577.132812,435.042419 580.419861,435.890533 
	C577.330078,448.305420 572.283386,459.530457 562.598877,468.827789 
	C569.582764,472.722168 575.995728,476.486237 582.591614,479.896393 
	C585.854980,481.583588 589.393738,480.782990 592.829224,479.789062 
	C594.384399,479.339142 596.281982,478.886200 597.194214,480.910767 
	C598.014282,482.730896 596.918335,484.203918 595.647095,485.305206 
	C591.124329,489.223083 585.812195,488.865967 580.504150,487.670990 
	C576.245361,486.712158 572.340332,484.670898 568.680603,482.403137 
	C559.905457,476.965637 550.764404,475.605072 540.961365,478.958984 
	C540.335510,479.173126 539.665344,479.259613 539.014282,479.398193 
	C529.022217,481.525513 528.868896,481.806854 532.526611,491.321381 
	C537.008728,502.980316 547.479858,508.967133 559.928589,507.052612 
	C563.212708,506.547546 566.514526,506.083649 569.825806,505.855927 
	C572.124817,505.697784 574.547607,505.742279 576.279724,508.805298 
	C571.868896,512.486206 566.334839,513.737854 561.075134,515.029907 
	C544.551514,519.088989 528.342041,510.491302 523.681824,494.094269 
	C520.854919,484.147980 515.965576,479.344696 505.599518,478.609528 
	C497.610046,478.042938 489.650330,475.838623 485.866333,466.759705 
z"/>
<path fill="#000000" opacity="1.000000" stroke="none" 
	d="
M405.060303,409.742706 
	C410.157928,407.401367 414.870941,407.966461 419.414459,410.064697 
	C423.942139,412.155701 427.217712,411.712830 430.482788,407.331512 
	C437.174500,398.351990 445.470886,391.252075 456.900024,388.901062 
	C459.976776,388.268219 460.990509,386.880859 460.159607,383.628174 
	C459.346313,380.444489 459.109344,377.096191 459.420288,373.734344 
	C459.765564,370.000916 461.922699,367.675781 464.949036,365.962219 
	C466.784454,364.923035 468.887512,364.434692 470.495728,366.123627 
	C471.986969,367.689697 470.435028,369.206055 469.714203,370.631042 
	C466.158691,377.659668 467.732147,383.309601 474.585266,387.045471 
	C483.128357,391.702606 492.185699,393.964417 501.989960,392.337097 
	C503.881805,392.023071 506.423645,391.121460 507.373322,393.411255 
	C508.432587,395.965363 505.904266,397.228333 504.142090,398.323700 
	C499.406891,401.267029 494.226288,402.083069 488.787506,400.826874 
	C483.767029,399.667297 478.782959,398.350861 473.766113,397.174927 
	C462.697540,394.580505 453.511597,398.657898 445.221008,405.499512 
	C439.153503,410.506592 434.405487,416.772400 429.343445,422.731598 
	C427.405975,425.012451 425.271454,427.052734 421.477844,427.496674 
	C421.342499,423.100189 421.057770,419.100708 415.814026,417.804321 
	C410.242737,416.426971 405.683105,417.672943 401.520447,421.367950 
	C400.201752,422.538422 398.987854,424.106720 396.856873,423.682556 
	C394.756958,418.354492 396.903717,414.609833 405.060303,409.742706 
z"/>
<path fill="#000000" opacity="1.000000" stroke="none" 
	d="
M568.729980,423.015167 
	C563.263672,424.495911 558.512634,423.734619 554.122314,420.854889 
	C552.864624,420.029968 551.544617,419.036652 552.156494,417.278595 
	C552.683533,415.764160 554.238281,415.527710 555.504761,415.820068 
	C561.486328,417.200928 567.318787,415.766815 573.208740,415.176544 
	C575.119934,414.985046 577.638855,414.719543 578.156982,417.214508 
	C578.625366,419.470367 576.226685,419.988007 574.643616,420.721100 
	C572.849487,421.552002 570.962402,422.182190 568.729980,423.015167 
z"/>
<path fill="#000000" opacity="1.000000" stroke="none" 
	d="
M514.854736,363.645752 
	C516.480286,364.930573 517.266602,366.506897 515.762390,367.614624 
	C510.511749,371.481415 505.476562,375.853546 498.725952,377.211670 
	C497.179413,369.701355 506.132812,362.186920 514.854736,363.645752 
z"/>
</svg>